/vscmnt/brussel_pixiu_data/_data_brussel/112/vsc11236/PredSimResults/SUBJ09opt3D/expIG/worker_02.mot
version=1
nRows=10
nColumns=50
inDegrees=yes
endheader
                time	         pelvis_tilt	         pelvis_list	     pelvis_rotation	           pelvis_tx	           pelvis_ty	           pelvis_tz	       hip_flexion_r	     hip_adduction_r	      hip_rotation_r	        knee_angle_r	       ankle_angle_r	         mtp_angle_r	       hip_flexion_l	     hip_adduction_l	      hip_rotation_l	        knee_angle_l	       ankle_angle_l	         mtp_angle_l	    lumbar_extension	      lumbar_bending	     lumbar_rotation	 ercspn_r/activation	 intobl_r/activation	 extobl_r/activation	    abd_r/activation	    add_r/activation	hamstrings_r/activation	bifemsh_r/activation	glut_max_r/activation	iliopsoas_r/activation	rect_fem_r/activation	  vasti_r/activation	gastroc_r/activation	 soleus_r/activation	tib_ant_r/activation	 ercspn_l/activation	 intobl_l/activation	 extobl_l/activation	    abd_l/activation	    add_l/activation	hamstrings_l/activation	bifemsh_l/activation	glut_max_l/activation	iliopsoas_l/activation	rect_fem_l/activation	  vasti_l/activation	gastroc_l/activation	 soleus_l/activation	tib_ant_l/activation	
          0.85724279	         -1.83511497	          0.30123616	         -4.39449220	          0.60006995	          1.00631053	          0.01048483	         -7.97503131	         -2.32378482	        -15.08663752	        -13.37095037	         10.69111911	         24.31510411	         21.56287166	         -1.28320115	         -9.71592147	         -1.53016486	          0.41675425	          0.22098776	        -14.81714543	          3.48044146	          5.42966664	          0.00999999	          0.00999999	          0.00999999	          0.07086107	          0.00999999	          0.00999999	          0.08415872	          0.03404967	          0.01285746	          0.01155549	          0.00999999	          0.21655367	          0.25640489	          0.00999999	          0.01285746	          0.18745526	          0.07435903	          0.00999999	          0.20636005	          0.02006599	          0.04561172	          0.01285746	          0.08330005	          0.04517873	          0.01659479	          0.00999999	          0.00999999	          0.26037953	
          0.87438764	         -1.94198595	          0.18448331	         -4.22040267	          0.61628667	          1.00416031	          0.00849891	         -8.54728553	         -2.43137683	        -15.79940059	        -13.96780524	         10.35871661	         25.50720064	         20.75843454	         -1.17776853	         -9.94466565	         -1.49083567	         -0.08611706	          0.20799657	        -14.34989504	          3.12359271	          5.45333144	          0.00999999	          0.00999999	          0.01285746	          0.05511273	          0.01285746	          0.02680934	          0.06545509	          0.04571071	          0.00999999	          0.00999999	          0.01451411	          0.20341534	          0.24611459	          0.00999999	          0.00999999	          0.20852036	          0.05783330	          0.02435322	          0.16049811	          0.01560648	          0.08765094	          0.00999999	          0.06478725	          0.03513810	          0.01290672	          0.01285746	          0.01109304	          0.29109999	
          0.89153250	         -2.03449466	          0.13535201	         -4.00040280	          0.63294875	          1.00247027	          0.00640430	         -9.04987687	         -2.64070361	        -16.56295739	        -14.74236843	          9.80599268	         26.77003870	         19.91092713	         -1.03198421	        -10.31426618	         -1.39299134	         -0.86886058	          0.19999642	        -13.84119880	          2.66296353	          5.45499277	          0.00999999	          0.00999999	          0.00999999	          0.04286435	          0.00999999	          0.02625770	          0.05090819	          0.04316580	          0.00999999	          0.00999999	          0.01867063	          0.18238680	          0.22751493	          0.00999999	          0.00999999	          0.18461096	          0.04498029	          0.05393954	          0.12482863	          0.03683759	          0.06817119	          0.00999999	          0.05038878	          0.02732893	          0.01003830	          0.00999999	          0.00999999	          0.32958217	
          0.90867736	         -2.11566160	          0.12287018	         -3.72544213	          0.64972621	          1.00157938	          0.00419930	         -9.39274664	         -2.93737204	        -17.35258433	        -15.80512766	          8.94026684	         28.10123908	         19.15232613	         -0.87000648	        -10.84117814	         -1.49171138	         -1.53505059	          0.17687496	        -13.33147278	          2.13597992	          5.43610229	          0.00999999	          0.00999999	          0.00999999	          0.03333807	          0.00999999	          0.03621438	          0.03959423	          0.03357253	          0.00999999	          0.00999999	          0.02259125	          0.14340566	          0.20387067	          0.00999999	          0.00999999	          0.14358258	          0.03498376	          0.07794200	          0.09708642	          0.04945329	          0.05302066	          0.02485672	          0.03919026	          0.02125528	          0.01837636	          0.00999999	          0.00999999	          0.34767002	
          0.92582221	         -2.18642333	          0.13680295	         -3.40760563	          0.66641532	          1.00169705	          0.00190485	         -9.51149157	         -3.33160809	        -18.13639844	        -17.23942271	          7.73237837	         29.42988981	         18.49153935	         -0.69705196	        -11.40647015	         -1.81312119	         -1.94998295	          0.15446988	        -12.84108998	          1.55990576	          5.39681115	          0.03677846	          0.00999999	          0.00999999	          0.02592894	          0.00999999	          0.05534530	          0.03079472	          0.02611129	          0.00999999	          0.00999999	          0.03566935	          0.11153485	          0.16823213	          0.00999999	          0.00999999	          0.11167245	          0.02720889	          0.09505570	          0.07550970	          0.05123035	          0.04123722	          0.05585360	          0.03048052	          0.01653146	          0.01429235	          0.00999999	          0.00999999	          0.34364520	
          0.94296707	         -2.24581635	          0.17248132	         -3.06745701	          0.68291665	          1.00286363	         -0.00043853	         -9.39788922	         -3.82729779	        -18.89106646	        -19.04535098	          6.21889774	         30.59455048	         17.87904064	         -0.50467568	        -11.84524542	         -2.26810489	         -2.08865689	          0.13835005	        -12.37567720	          0.94571528	          5.34202246	          0.03645703	          0.03021532	          0.00999999	          0.02016643	          0.01285746	          0.06810455	          0.02395083	          0.02030826	          0.00999999	          0.00999999	          0.02774211	          0.08674708	          0.13084382	          0.00999999	          0.00999999	          0.08685410	          0.02116192	          0.10144494	          0.05872838	          0.05632723	          0.03207256	          0.06707740	          0.02370646	          0.01285747	          0.01380063	          0.00999999	          0.00999999	          0.32439613	
          0.96011192	         -2.29171461	          0.19181963	         -2.72345329	          0.69914255	          1.00486235	         -0.00281056	         -8.99346518	         -4.41334555	        -19.59471664	        -21.34329537	          4.51104510	         31.40826571	         17.27705926	         -0.32929601	        -12.12858363	         -2.77652144	         -2.04117234	          0.13523653	        -11.94417601	          0.34606526	          5.27239433	          0.03361868	          0.05438963	          0.00999999	          0.01568460	          0.00999999	          0.07232857	          0.01862794	          0.01579490	          0.00999999	          0.00999999	          0.02157664	          0.06746820	          0.10176478	          0.00999999	          0.00999999	          0.06755144	          0.01645884	          0.10433223	          0.06417348	          0.06292060	          0.02494468	          0.06707680	          0.01843788	          0.00999999	          0.01336133	          0.00999999	          0.00999999	          0.30060673	
          0.97725678	         -2.32062562	          0.15104102	         -2.39047662	          0.71504707	          1.00736682	         -0.00520388	         -8.25853534	         -5.07019978	        -20.25972038	        -24.20937407	          2.69127152	         31.70377229	         16.65707956	         -0.21661708	        -12.29405361	         -3.27684999	         -1.89051032	          0.15085153	        -11.55235968	         -0.17818548	          5.18367593	          0.03225615	          0.07470423	          0.00999999	          0.01219881	          0.00999999	          0.07502729	          0.01448802	          0.01228461	          0.00999999	          0.00999999	          0.01678140	          0.05247391	          0.07914834	          0.00999999	          0.00999999	          0.05253865	          0.01280099	          0.10588424	          0.04991141	          0.06705901	          0.01940092	          0.06971478	          0.01434020	          0.00999999	          0.01365160	          0.00999999	          0.00999999	          0.27296228	
          0.99440163	         -2.32946373	          0.01789547	         -2.08202953	          0.73060405	          1.01012285	         -0.00759934	         -7.17853837	         -5.78963187	        -20.93353089	        -27.68921025	          0.92268738	         31.13866107	         15.98650108	         -0.19740542	        -12.36087825	         -3.70466966	         -1.67862360	          0.20780702	        -11.20249466	         -0.58292304	          5.07333221	          0.02508746	          0.08003065	          0.00999999	          0.00999999	          0.05493625	          0.07715604	          0.01292492	          0.00999999	          0.00999999	          0.00999999	          0.01305186	          0.04081198	          0.06155822	          0.02068297	          0.00999999	          0.04086233	          0.00999999	          0.10125896	          0.03881898	          0.07035988	          0.01508921	          0.08322520	          0.01115320	          0.00999999	          0.01704716	          0.00999999	          0.00999999	          0.24833998	
          1.01154649	         -2.31642949	         -0.23283122	         -1.79550419	          0.74580649	          1.01296240	         -0.00995888	         -5.77178319	         -6.55616367	        -21.60081015	        -31.76466019	         -0.67379952	         29.43431716	         15.22746776	         -0.29331615	        -12.36644900	         -3.98433689	         -1.43717751	          0.32592150	        -10.89354237	         -0.83976674	          4.93538833	          0.01951197	          0.07019623	          0.04244334	          0.00999999	          0.13427374	          0.07568069	          0.02707386	          0.00999999	          0.00999999	          0.00999999	          0.01015118	          0.03174183	          0.04787738	          0.05750672	          0.00999999	          0.03178099	          0.00999999	          0.08255552	          0.03019176	          0.07163685	          0.01173575	          0.09568830	          0.00999999	          0.00999999	          0.03065223	          0.00999999	          0.00999999	          0.22868825	
